<?xml version="1.0" encoding="UTF-8" standalone="no"?>
<!-- Created with Inkscape (http://www.inkscape.org/) -->
<svg
   xmlns:dc="http://purl.org/dc/elements/1.1/"
   xmlns:cc="http://web.resource.org/cc/"
   xmlns:rdf="http://www.w3.org/1999/02/22-rdf-syntax-ns#"
   xmlns:svg="http://www.w3.org/2000/svg"
   xmlns="http://www.w3.org/2000/svg"
   xmlns:xlink="http://www.w3.org/1999/xlink"
   xmlns:sodipodi="http://sodipodi.sourceforge.net/DTD/sodipodi-0.dtd"
   xmlns:inkscape="http://www.inkscape.org/namespaces/inkscape"
   width="744.09448819"
   height="1052.3622047"
   id="svg2"
   sodipodi:version="0.32"
   inkscape:version="0.45"
   sodipodi:docbase="/home/aherms/Texte/awds"
   sodipodi:docname="logo.svg"
   inkscape:output_extension="org.inkscape.output.svg.inkscape"
   inkscape:export-filename="/home/aherms/Texte/awds/logo.png"
   inkscape:export-xdpi="57.505074"
   inkscape:export-ydpi="57.505074"
   sodipodi:modified="TRUE">
  <defs
     id="defs4">
    <linearGradient
       id="linearGradient5199">
      <stop
         id="stop5201"
         offset="0"
         style="stop-color:#000000;stop-opacity:1;" />
      <stop
         id="stop5203"
         offset="1"
         style="stop-color:#1930d9;stop-opacity:1;" />
    </linearGradient>
    <linearGradient
       id="linearGradient3185">
      <stop
         style="stop-color:#191f62;stop-opacity:1;"
         offset="0"
         id="stop3187" />
      <stop
         style="stop-color:#ffffff;stop-opacity:1;"
         offset="1"
         id="stop3189" />
    </linearGradient>
    <linearGradient
       inkscape:collect="always"
       xlink:href="#linearGradient3185"
       id="linearGradient3191"
       x1="489.5"
       y1="164.58859"
       x2="697.24404"
       y2="164.58859"
       gradientUnits="userSpaceOnUse" />
    <linearGradient
       inkscape:collect="always"
       xlink:href="#linearGradient3185"
       id="linearGradient3193"
       x1="389.5"
       y1="164.60822"
       x2="597.32762"
       y2="164.60822"
       gradientUnits="userSpaceOnUse" />
    <linearGradient
       inkscape:collect="always"
       xlink:href="#linearGradient3185"
       id="linearGradient3195"
       x1="289.5"
       y1="164.60822"
       x2="497.32762"
       y2="164.60822"
       gradientUnits="userSpaceOnUse" />
    <linearGradient
       inkscape:collect="always"
       xlink:href="#linearGradient5199"
       id="linearGradient5191"
       x1="648.63074"
       y1="165.6445"
       x2="681.24054"
       y2="165.6445"
       gradientUnits="userSpaceOnUse" />
    <linearGradient
       inkscape:collect="always"
       xlink:href="#linearGradient5199"
       id="linearGradient5193"
       x1="546.69806"
       y1="164.72159"
       x2="579.63751"
       y2="164.72159"
       gradientUnits="userSpaceOnUse" />
    <linearGradient
       inkscape:collect="always"
       xlink:href="#linearGradient5199"
       id="linearGradient5195"
       x1="446.5535"
       y1="164.72159"
       x2="488.1947"
       y2="164.72159"
       gradientUnits="userSpaceOnUse" />
    <linearGradient
       inkscape:collect="always"
       xlink:href="#linearGradient5199"
       id="linearGradient5197"
       x1="306.12283"
       y1="160.7823"
       x2="386.06686"
       y2="160.7823"
       gradientUnits="userSpaceOnUse" />
  </defs>
  <sodipodi:namedview
     id="base"
     pagecolor="#ffffff"
     bordercolor="#666666"
     borderopacity="1.0"
     gridtolerance="10000"
     guidetolerance="10"
     objecttolerance="10"
     inkscape:pageopacity="0.0"
     inkscape:pageshadow="2"
     inkscape:zoom="0.98994949"
     inkscape:cx="375"
     inkscape:cy="907.92452"
     inkscape:document-units="px"
     inkscape:current-layer="layer1"
     inkscape:window-width="1016"
     inkscape:window-height="688"
     inkscape:window-x="1280"
     inkscape:window-y="0"
     showgrid="true" />
  <metadata
     id="metadata7">
    <rdf:RDF>
      <cc:Work
         rdf:about="">
        <dc:format>image/svg+xml</dc:format>
        <dc:type
           rdf:resource="http://purl.org/dc/dcmitype/StillImage" />
      </cc:Work>
    </rdf:RDF>
  </metadata>
  <g
     inkscape:label="Layer 1"
     inkscape:groupmode="layer"
     id="layer1">
    <path
       style="opacity:1;fill:url(#linearGradient3195);fill-opacity:1.0;fill-rule:evenodd;stroke:#000000;stroke-width:1;stroke-linecap:butt;stroke-linejoin:miter;stroke-miterlimit:4;stroke-dasharray:none;stroke-dashoffset:0;stroke-opacity:1"
       d="M 324.11045,86.855519 C 312.7132,86.826189 301.33546,87.308799 290.1317,88.270779 C 319.42435,90.790399 347.61661,96.697939 371.65434,106.12331 C 443.81819,134.41927 451.05675,183.60186 387.80961,215.88705 C 361.31952,229.40919 326.65744,237.8091 290,240.95741 C 348.64703,246.00196 411.56812,237.41805 453.74768,215.88705 C 516.99482,183.60186 509.75627,134.41926 437.59241,106.12331 C 404.89317,93.301699 364.45429,86.959319 324.11045,86.855519 z "
       id="path2197" />
    <path
       style="opacity:1;fill:url(#linearGradient3193);fill-opacity:1.0;fill-rule:evenodd;stroke:#000000;stroke-width:1;stroke-linecap:butt;stroke-linejoin:miter;stroke-miterlimit:4;stroke-dasharray:none;stroke-dashoffset:0;stroke-opacity:1"
       d="M 424.11045,86.85551 C 412.7132,86.82619 401.33546,87.3088 390.1317,88.27078 C 419.42435,90.79039 447.61661,96.69794 471.65434,106.1233 C 543.81819,134.41927 551.05675,183.60186 487.80961,215.88705 C 461.31952,229.40919 426.65744,237.8091 390,240.95741 C 448.64703,246.00196 511.56812,237.41805 553.74768,215.88705 C 616.99482,183.60186 609.75627,134.41926 537.59241,106.1233 C 504.89317,93.3017 464.45429,86.95932 424.11045,86.85551 z "
       id="path2199" />
    <path
       style="opacity:1;fill:url(#linearGradient3191);fill-opacity:1.0;fill-rule:evenodd;stroke:#000000;stroke-width:1;stroke-linecap:butt;stroke-linejoin:miter;stroke-miterlimit:4;stroke-dasharray:none;stroke-dashoffset:0;stroke-opacity:1"
       d="M 524.11047,86.855507 C 512.77075,86.827023 501.4299,87.301379 490.1317,88.27078 C 528.49135,91.876368 567.66938,100.04915 600.70466,120.77268 C 616.39385,130.93227 631.97291,146.84159 630.81289,166.97398 C 629.04234,187.66279 611.63905,202.24642 594.89906,212.02853 C 562.95159,230.09176 526.2108,237.61003 490,240.95741 C 538.64944,244.78709 588.68551,240.97805 634.79223,224.20044 C 656.49968,215.71599 679.20315,204.31848 691.58593,183.65392 C 700.39627,169.51985 697.35053,150.79199 686.7706,138.50112 C 669.13094,117.41623 642.4219,106.84628 616.77397,99.110114 C 586.6976,90.553672 555.3283,86.995888 524.11047,86.855507 z "
       id="path2201" />
    <text
       xml:space="preserve"
       style="font-size:22px;font-style:normal;font-variant:normal;font-weight:normal;font-stretch:normal;text-align:start;line-height:125%;writing-mode:lr-tb;text-anchor:start;fill:#000000;fill-opacity:1;stroke:none;stroke-width:1px;stroke-linecap:butt;stroke-linejoin:miter;stroke-opacity:1;font-family:Arial"
       x="542.4519"
       y="452.33157"
       id="text2219"
       sodipodi:linespacing="125%"><tspan
         sodipodi:role="line"
         id="tspan2221"
         x="542.4519"
         y="452.33157"> </tspan></text>
    <text
       xml:space="preserve"
       style="font-size:22px;font-style:normal;font-variant:normal;font-weight:normal;font-stretch:normal;text-align:start;line-height:125%;writing-mode:lr-tb;text-anchor:start;fill:#000000;fill-opacity:1;stroke:none;stroke-width:1px;stroke-linecap:butt;stroke-linejoin:miter;stroke-opacity:1;font-family:Arial"
       x="511.13718"
       y="371.51938"
       id="text2235"
       sodipodi:linespacing="125%"><tspan
         sodipodi:role="line"
         id="tspan2237"
         x="511.13718"
         y="371.51938"> </tspan></text>
    <text
       xml:space="preserve"
       style="font-size:22px;font-style:normal;font-variant:normal;font-weight:normal;font-stretch:normal;text-align:start;line-height:125%;writing-mode:lr-tb;text-anchor:start;fill:#000000;fill-opacity:1;stroke:none;stroke-width:1px;stroke-linecap:butt;stroke-linejoin:miter;stroke-opacity:1;font-family:Arial"
       x="426.28436"
       y="380.61075"
       id="text3224"
       sodipodi:linespacing="125%"><tspan
         sodipodi:role="line"
         id="tspan3226"
         x="426.28436"
         y="380.61075">   </tspan></text>
    <g
       id="g4174"
       style="fill:#000000;fill-opacity:1">
      <path
         id="text2227"
         d="M 447.0535,140.11603 L 453.54686,140.11603 L 458.26032,180.06504 L 463.86372,153.63014 L 470.81854,153.63014 L 476.48788,180.13097 L 481.20133,140.11603 L 487.69469,140.11603 L 480.34434,189.32715 L 474.04875,189.32715 L 467.35762,160.09054 L 460.69945,189.32715 L 454.40385,189.32715 L 447.0535,140.11603"
         style="font-size:67.50460052px;font-style:normal;font-variant:normal;font-weight:normal;font-stretch:normal;text-align:start;line-height:125%;writing-mode:lr-tb;text-anchor:start;fill:url(#linearGradient5195);fill-opacity:1.0;stroke:#000000;stroke-width:1px;stroke-linecap:butt;stroke-linejoin:miter;stroke-opacity:1;font-family:Bitstream Vera Sans Mono"
         transform="scale(0.9842223,1.0160307)" />
      <path
         id="text2231"
         d="M 346.06078,122.05953 L 331.55251,174.09857 L 360.56905,174.09857 L 346.06078,122.05953 M 337.75088,109.93525 L 354.43879,109.93525 L 385.56686,211.62935 L 371.33105,211.62935 L 363.83852,185.13303 L 328.21493,185.13303 L 320.85863,211.62935 L 306.62282,211.62935 L 337.75088,109.93525"
         style="font-size:139.49732971px;font-style:normal;font-variant:normal;font-weight:normal;font-stretch:normal;text-align:start;line-height:125%;writing-mode:lr-tb;text-anchor:start;fill:url(#linearGradient5197);fill-opacity:1.0;stroke:#000000;stroke-width:1px;stroke-linecap:butt;stroke-linejoin:miter;stroke-opacity:1;font-family:Bitstream Vera Sans Mono"
         transform="scale(0.9784009,1.022076)" />
      <path
         id="text3228"
         d="M 557.05347,183.85558 C 562.65686,183.85559 566.56825,182.48221 568.78767,179.73543 C 571.00703,176.9667 572.11672,171.97857 572.11675,164.77103 C 572.11672,157.49762 571.00703,152.48752 568.78767,149.74071 C 566.59023,146.97201 562.67883,145.58764 557.05347,145.5876 L 553.88919,145.5876 L 553.88919,183.85558 L 557.05347,183.85558 M 557.18531,140.11603 C 564.70045,140.11608 570.23793,142.11573 573.79777,146.11497 C 577.35755,150.11431 579.13746,156.33299 579.13749,164.77103 C 579.13746,173.16517 577.35755,179.36188 573.79777,183.36117 C 570.23793,187.33849 564.70045,189.32715 557.18531,189.32715 L 547.19806,189.32715 L 547.19806,140.11603 L 557.18531,140.11603"
         style="font-size:67.50460052px;font-style:normal;font-variant:normal;font-weight:normal;font-stretch:normal;text-align:start;line-height:125%;writing-mode:lr-tb;text-anchor:start;fill:url(#linearGradient5193);fill-opacity:1.0;stroke:#000000;stroke-width:1px;stroke-linecap:butt;stroke-linejoin:miter;stroke-opacity:1;font-family:Bitstream Vera Sans Mono"
         transform="scale(0.9842223,1.0160307)" />
      <path
         id="text3232"
         d="M 677.9059,142.68701 L 677.9059,149.44406 C 675.88425,148.14763 673.85164,147.16978 671.80807,146.51051 C 669.78642,145.85133 667.74283,145.52172 665.67728,145.52167 C 662.53496,145.52172 660.05188,146.25785 658.22804,147.73008 C 656.40418,149.18041 655.49225,151.1471 655.49226,153.63014 C 655.49225,155.80561 656.08555,157.46466 657.27217,158.60728 C 658.48073,159.74997 660.72209,160.70584 663.99626,161.47491 L 667.49015,162.26598 C 672.10469,163.34274 675.46674,165.03475 677.57629,167.34201 C 679.68577,169.64931 680.74053,172.79162 680.74056,176.76892 C 680.74053,181.44942 679.29024,185.02022 676.38968,187.48132 C 673.48906,189.94243 669.27003,191.17298 663.73257,191.17298 C 661.42527,191.17298 659.107,190.92027 656.77775,190.41487 C 654.44848,189.93144 652.10823,189.1953 649.75701,188.20647 L 649.75701,181.1198 C 652.28403,182.72392 654.66822,183.89954 656.90959,184.64665 C 659.17292,185.39378 661.44724,185.76734 663.73257,185.76734 C 667.09459,185.76734 669.70951,185.02022 671.57734,183.52597 C 673.44512,182.00976 674.37902,179.90025 674.37905,177.19742 C 674.37902,174.73633 673.73078,172.85754 672.43433,171.56105 C 671.15981,170.26459 668.92943,169.26477 665.7432,168.56157 L 662.18339,167.73754 C 657.61275,166.70478 654.29466,165.14462 652.2291,163.05705 C 650.16352,160.96953 649.13074,158.16783 649.13074,154.65193 C 649.13074,150.25714 650.60301,146.74128 653.54755,144.10434 C 656.51405,141.44552 660.44742,140.11608 665.34767,140.11603 C 667.23742,140.11608 669.22608,140.33582 671.31365,140.77526 C 673.40117,141.19281 675.59858,141.83006 677.9059,142.68701"
         style="font-size:67.50460052px;font-style:normal;font-variant:normal;font-weight:normal;font-stretch:normal;text-align:start;line-height:125%;writing-mode:lr-tb;text-anchor:start;fill:url(#linearGradient5191);fill-opacity:1.0;stroke:#000000;stroke-width:1px;stroke-linecap:butt;stroke-linejoin:miter;stroke-opacity:1;font-family:Bitstream Vera Sans Mono"
         transform="scale(0.9842223,1.0160307)" />
    </g>
    <text
       xml:space="preserve"
       style="font-size:22px;font-style:normal;font-variant:normal;font-weight:normal;font-stretch:normal;text-align:start;line-height:125%;writing-mode:lr-tb;text-anchor:start;fill:#000000;fill-opacity:1;stroke:none;stroke-width:1px;stroke-linecap:butt;stroke-linejoin:miter;stroke-opacity:1;font-family:Arial"
       x="588.91895"
       y="367.47876"
       id="text3236"
       sodipodi:linespacing="125%"><tspan
         sodipodi:role="line"
         id="tspan3238"
         x="588.91895"
         y="367.47876"> </tspan></text>
  </g>
</svg>
